<?xml version="1.0" standalone="no"?>
<!DOCTYPE svg PUBLIC "-//W3C//DTD SVG 20010904//EN"
 "http://www.w3.org/TR/2001/REC-SVG-20010904/DTD/svg10.dtd">
<svg version="1.0" xmlns="http://www.w3.org/2000/svg"
 width="418.000000pt" height="418.000000pt" viewBox="0 0 418.000000 418.000000"
 preserveAspectRatio="xMidYMid meet">

<g transform="translate(0.000000,418.000000) scale(0.100000,-0.100000)"
fill="#ff0000" stroke="none">
<path d="M1958 3920 c-294 -50 -535 -259 -618 -538 l-23 -74 -31 6 c-17 3 -92
9 -166 12 -122 6 -138 5 -154 -11 -16 -16 -17 -39 -14 -259 l3 -241 31 -66
c55 -115 145 -193 261 -228 l58 -17 6 -620 c6 -677 5 -661 70 -859 76 -228
186 -403 363 -581 130 -130 286 -244 334 -244 36 0 195 108 295 200 229 212
379 478 449 800 20 89 22 131 25 701 l4 607 32 6 c105 20 230 117 279 218 40
82 48 143 48 356 0 263 12 247 -174 238 -78 -4 -154 -9 -171 -12 -29 -5 -30
-4 -42 47 -38 160 -161 330 -316 437 -148 103 -370 152 -549 122z m41 -144
c-56 -38 -73 -72 -74 -141 0 -69 19 -108 68 -142 17 -13 27 -23 20 -23 -18 0
-72 49 -88 81 -20 38 -18 126 3 166 17 32 76 83 96 83 6 0 -5 -11 -25 -24z
m-211 -89 c-9 -42 -9 -70 -1 -109 6 -29 9 -55 7 -57 -12 -13 -168 104 -159
119 8 12 157 111 161 107 2 -2 -2 -29 -8 -60z m609 41 c21 -12 59 -38 86 -59
l47 -37 -37 -30 c-49 -38 -120 -82 -133 -82 -6 0 -6 9 0 26 6 14 10 54 10 89
0 35 -4 75 -10 89 -12 31 -11 32 37 4z m-711 -290 c33 -21 103 -52 155 -70 89
-30 102 -32 234 -32 118 0 152 4 215 23 83 26 187 76 240 115 l34 26 38 -77
c21 -43 41 -94 44 -113 l6 -35 -101 -34 c-128 -43 -279 -115 -387 -186 l-86
-56 -71 48 c-92 61 -257 142 -372 183 -121 43 -139 52 -95 44 19 -4 75 -22
124 -41 49 -19 94 -36 101 -37 7 -1 19 -7 26 -13 31 -24 141 -73 151 -67 6 4
8 3 4 -4 -8 -13 60 -56 74 -47 6 4 9 3 8 -2 -2 -4 1 -8 5 -8 5 0 13 -8 18 -17
6 -10 16 -18 24 -18 24 0 82 45 77 60 -3 13 -2 13 7 0 10 -14 16 -7 12 13 -1
5 3 6 8 3 5 -4 54 17 108 46 54 29 103 53 108 54 23 4 63 23 69 33 4 6 13 8
20 5 8 -3 17 0 22 7 4 7 3 10 -2 6 -6 -3 -15 3 -22 13 -10 17 -9 17 15 5 27
-14 36 -14 101 6 42 12 51 22 31 34 -6 4 -8 13 -5 21 7 18 -39 124 -54 124 -6
0 -9 4 -5 9 13 21 -14 19 -45 -4 -30 -22 -32 -30 -7 -26 5 1 5 -4 2 -10 -5 -7
-10 -8 -18 0 -12 12 -67 -13 -67 -30 0 -6 -4 -8 -9 -5 -9 6 -81 -20 -91 -33
-3 -3 -11 -6 -17 -7 -39 -3 -44 -5 -38 -14 5 -8 11 -8 20 0 10 8 15 8 21 -1 4
-7 3 -9 -4 -5 -6 3 -14 1 -17 -4 -5 -8 -12 -6 -24 4 -13 12 -25 13 -61 4 -25
-5 -63 -10 -85 -10 -22 0 -46 -5 -53 -11 -10 -8 -16 -7 -20 1 -4 6 -40 12 -79
14 -39 2 -69 6 -66 11 2 4 -2 7 -9 7 -7 0 -24 3 -37 7 -19 5 -22 3 -17 -8 5
-8 2 -8 -6 2 -17 20 -131 72 -163 73 -13 1 -28 6 -32 10 -4 5 -2 6 5 2 6 -4
12 -3 12 3 0 14 -35 32 -45 23 -5 -4 -6 -2 -3 3 3 6 0 15 -7 22 -10 10 -15 10
-23 0 -18 -23 -50 -92 -68 -150 -13 -41 -22 -56 -32 -52 -7 3 -21 5 -29 5 -12
0 -14 7 -10 28 10 50 46 137 77 186 l31 48 37 -34 c20 -19 64 -50 98 -70z
m779 -56 c-3 -3 -11 0 -18 7 -9 10 -8 11 6 5 10 -3 15 -9 12 -12z m-1128 -197
c204 -38 462 -144 623 -255 12 -8 -1 -25 -73 -94 l-87 -84 -103 54 c-169 88
-346 144 -503 159 -38 3 -81 9 -96 11 l-28 6 0 117 0 117 90 -8 c49 -3 129
-14 177 -23z m1753 -84 c0 -133 2 -131 -82 -131 -55 0 -230 -36 -322 -66 -132
-42 -311 -136 -427 -223 -356 -268 -566 -661 -595 -1121 -7 -104 7 -184 47
-262 34 -67 115 -145 188 -181 62 -30 72 -32 177 -32 107 0 112 1 186 38 91
44 146 102 192 197 31 64 31 67 31 220 0 172 -20 288 -77 449 -50 143 -159
339 -232 420 l-21 23 74 69 c109 103 101 103 169 11 151 -204 251 -431 302
-688 32 -155 38 -406 15 -546 -46 -278 -169 -526 -364 -731 -89 -93 -244 -217
-273 -217 -27 0 -177 117 -265 207 -281 289 -424 700 -384 1103 62 614 409
1123 951 1395 185 93 406 156 603 174 51 5 95 9 100 10 4 0 7 -52 7 -118z
m-754 97 c4 -7 4 -10 -1 -6 -4 4 -14 3 -22 -4 -11 -8 -12 -7 -7 6 7 19 20 21
30 4z m-451 -17 c3 -5 2 -12 -3 -15 -5 -3 -9 1 -9 9 0 17 3 19 12 6z m125 -81
c0 -5 -5 -10 -11 -10 -5 0 -7 5 -4 10 3 6 8 10 11 10 2 0 4 -4 4 -10z m-777
-262 l67 -10 0 -100 c0 -98 0 -99 -22 -93 -38 12 -101 52 -131 83 -32 33 -78
122 -71 134 5 8 29 6 157 -14z m1847 10 c-1 -29 -41 -99 -80 -138 -39 -39
-109 -79 -137 -80 -10 0 -13 27 -13 100 0 55 3 100 8 101 4 0 50 6 102 13 124
18 120 18 120 4z m-1487 -126 c64 -30 117 -60 117 -66 0 -6 -15 -28 -33 -49
l-32 -37 -50 24 c-65 31 -121 90 -150 160 -16 38 -16 38 7 31 13 -4 76 -32
141 -63z m1107 15 c-27 -58 -82 -114 -134 -138 -56 -25 -60 -24 -95 20 l-31
39 56 33 c54 31 216 99 222 94 2 -2 -6 -23 -18 -48z m-1242 -203 c15 -14 45
-35 67 -46 22 -11 41 -22 43 -23 2 -2 -14 -36 -36 -77 -22 -40 -52 -102 -68
-138 -15 -36 -30 -68 -33 -72 -3 -4 -6 81 -6 188 0 106 1 194 3 194 2 0 15
-12 30 -26z m1211 -94 c-1 -44 -6 -70 -13 -70 -7 0 -7 -3 -1 -8 6 -4 11 -18
13 -32 2 -15 -15 7 -41 54 l-44 80 41 21 c23 12 42 23 44 24 1 0 2 -30 1 -69z
m-519 -201 c70 -109 125 -226 160 -339 32 -102 60 -249 60 -311 l0 -39 -296 0
-295 0 6 58 c12 108 36 223 65 311 56 172 207 434 236 410 7 -6 36 -46 64 -90z
m203 -856 c-23 -67 -103 -145 -171 -167 -140 -47 -276 -1 -355 120 -14 21 -29
51 -32 67 l-7 27 290 0 291 0 -16 -47z"/>
<path d="M2650 2715 c-34 -46 -111 -105 -137 -105 -7 0 -13 -4 -13 -10 0 -34
123 39 163 96 41 59 29 75 -13 19z"/>
<path d="M1491 2415 c0 -56 3 -73 9 -58 5 12 20 40 34 62 23 36 24 40 8 45 -9
3 -21 5 -26 5 -5 0 -13 5 -17 13 -5 8 -8 -20 -8 -67z m47 41 c-2 -1 -11 -7
-20 -14 -14 -11 -16 -10 -13 5 2 10 4 19 4 20 1 1 8 0 16 -4 9 -3 15 -6 13 -7z"/>
<path d="M2629 2472 c-24 -16 -30 -50 -7 -36 7 4 8 2 4 -4 -4 -7 -1 -21 7 -33
9 -12 18 -16 21 -10 4 5 2 13 -4 16 -8 5 -8 11 0 19 7 9 12 67 5 66 0 0 -12
-8 -26 -18z"/>
<path d="M1950 2070 c-39 -39 -14 -100 43 -100 27 0 57 32 57 60 0 21 -41 60
-63 60 -9 0 -26 -9 -37 -20z"/>
<path d="M2132 2074 c-27 -19 -29 -64 -4 -87 26 -24 68 -21 86 5 22 31 20 45
-9 73 -28 29 -42 31 -73 9z"/>
</g>
</svg>
