<?xml version="1.0" encoding="iso-8859-1"?>
<!-- Generator: Adobe Illustrator 16.0.0, SVG Export Plug-In . SVG Version: 6.00 Build 0)  -->
<!DOCTYPE svg PUBLIC "-//W3C//DTD SVG 1.1//EN" "http://www.w3.org/Graphics/SVG/1.1/DTD/svg11.dtd">
<svg version="1.1" id="Capa_1" xmlns="http://www.w3.org/2000/svg" xmlns:xlink="http://www.w3.org/1999/xlink" x="0px" y="0px"
	 width="343.715px" height="343.715px" viewBox="0 0 343.715 343.715" style="enable-background:new 0 0 343.715 343.715;"
	 xml:space="preserve">
<g>
	<g>
		<path d="M256.534,56.725c-7.228-36.66-70.085-58.362-84.682-30.886c-14.591-27.494-77.448-5.792-84.671,30.886
			C77.734,95.037,27.75,105.582,0,85.59c0,43.311,46.644,43.871,75.51,46.644c68.375-2.989,89.978-34.523,96.342-48.921
			c6.37,14.41,27.979,45.932,96.348,48.921c28.889-2.773,75.516-3.333,75.516-46.644C315.948,105.582,265.981,95.037,256.534,56.725
			z"/>
		<path d="M170.894,98.908c-37.845,51.718-113.846,40-113.846,40s-3.597,70.839,18.713,89.359
			c-1.396,82.452,87.841,100.562,110.208,101.965c22.373,1.389,65.1-25.445,56.098-41.863c18.263-17.924,24.241-39.971,22.35-61.491
			c19.57-2.79,8.617-86.095,8.617-86.095S195.241,143.631,170.894,98.908z"/>
	</g>
</g>
<g>
</g>
<g>
</g>
<g>
</g>
<g>
</g>
<g>
</g>
<g>
</g>
<g>
</g>
<g>
</g>
<g>
</g>
<g>
</g>
<g>
</g>
<g>
</g>
<g>
</g>
<g>
</g>
<g>
</g>
</svg>
